<svg width="100%" viewBox="0 0 880 1095" role="img" xmlns="http://www.w3.org/2000/svg" font-family="Arial,Helvetica,sans-serif">
<title>InspectIQ AI Agent Architecture v2</title>
<desc>Four-agent SequentialAgent pipeline (Capture, Analyze, Report, Audit) with MCP-based RAG, deployed on Google Cloud Run with Vertex AI</desc>
<defs>
<marker id="arrow" viewBox="0 0 10 10" refX="8" refY="5" markerWidth="6" markerHeight="6" orient="auto-start-reverse">
<path d="M2 1L8 5L2 9" fill="none" stroke="context-stroke" stroke-width="1.5" stroke-linecap="round" stroke-linejoin="round"/>
</marker>
</defs>

<!-- ═════════ HEADER ═════════ -->
<rect x="0" y="0" width="880" height="58" fill="#1C2F4A"/>
<text x="440" y="22" text-anchor="middle" font-size="14" font-weight="700" fill="#FFFFFF">InspectIQ — AI Agent Architecture</text>
<text x="440" y="38" text-anchor="middle" font-size="9.5" fill="#A8C0D8">MCAG Technologies LLC  ·  Google for Startups AI Agents Challenge 2026</text>
<text x="440" y="52" text-anchor="middle" font-size="8.5" fill="#6B90AE">4-agent sequential pipeline for Florida home inspection automation  ·  Google Cloud Run + Vertex AI</text>

<!-- ═════════ INSPECTOR  y=68..134 ═════════ -->
<rect x="290" y="68" width="300" height="66" rx="8" fill="#F1F5F9" stroke="#8FA9C5" stroke-width="0.5"/>
<circle cx="332" cy="89" r="9" fill="#2E4057"/>
<rect x="323" y="102" width="18" height="15" rx="3" fill="#2E4057"/>
<text x="358" y="84" font-size="12" font-weight="700" fill="#1C2F4A">Field inspector</text>
<text x="358" y="99" font-size="9" fill="#475569">📷  Inspection photos</text>
<text x="358" y="113" font-size="9" fill="#475569">🌐  Web UI — GET /inspect-ui</text>
<text x="358" y="127" font-size="9" fill="#475569">📋  4-Point / Wind Mit / Full inspection</text>

<!-- arrow inspector → orchestrator -->
<line x1="440" y1="134" x2="440" y2="156" stroke="#2E4057" stroke-width="1.5" marker-end="url(#arrow)"/>
<text x="450" y="149" font-size="8.5" fill="#2E4057">photos + inspection type  ·  POST /pipeline | /adk-pipeline</text>

<!-- ═════════ ORCHESTRATOR  y=158..214 ═════════ -->
<rect x="110" y="158" width="660" height="56" rx="8" fill="#2E4057"/>
<text x="440" y="179" text-anchor="middle" font-size="13" font-weight="700" fill="#FFFFFF">SequentialAgent orchestrator</text>
<text x="440" y="194" text-anchor="middle" font-size="9.5" fill="#A8C0D8">Google ADK  ·  Gemini via Vertex AI</text>
<text x="440" y="207" text-anchor="middle" font-size="8.5" fill="#7BA3C2">Coordinates 4 sub-agents in strict sequence  ·  task decomposition  ·  shared session state</text>

<!-- arrows orch → agents -->
<line x1="220" y1="214" x2="140" y2="230" stroke="#8FA9C5" stroke-width="1.2" marker-end="url(#arrow)"/>
<line x1="370" y1="214" x2="340" y2="230" stroke="#8FA9C5" stroke-width="1.2" marker-end="url(#arrow)"/>
<line x1="510" y1="214" x2="540" y2="230" stroke="#8FA9C5" stroke-width="1.2" marker-end="url(#arrow)"/>
<line x1="660" y1="214" x2="744" y2="230" stroke="#8FA9C5" stroke-width="1.2" marker-end="url(#arrow)"/>

<!-- ═══════════════════════════════════════════
     AGENTS  y=230..516   columns x=36/242/448/654  w=188
     ═══════════════════════════════════════════ -->

<!-- ── 1 · CAPTURE (blue) ── -->
<rect x="36" y="230" width="188" height="286" rx="8" fill="#E6F1FB" stroke="#185FA5" stroke-width="0.6"/>
<rect x="36" y="230" width="188" height="42" rx="8" fill="#185FA5"/>
<rect x="36" y="258" width="188" height="14" fill="#185FA5"/>
<circle cx="54" cy="250" r="8" fill="#FFFFFF" opacity="0.92"/>
<text x="54" y="253.5" text-anchor="middle" font-size="9" font-weight="700" fill="#185FA5">1</text>
<text x="134" y="248" text-anchor="middle" font-size="11" font-weight="700" fill="#FFFFFF">Capture agent</text>
<text x="134" y="262" text-anchor="middle" font-size="8.5" fill="#B5D4F4">Gemini 2.0 Flash (Vision)</text>
<text x="48" y="296" font-size="9.5" font-weight="700" fill="#0C447C">Input</text>
<text x="48" y="310" font-size="9" fill="#185FA5">Raw photo (JPEG / PNG / URL)</text>
<text x="48" y="330" font-size="9.5" font-weight="700" fill="#0C447C">Output</text>
<text x="48" y="344" font-size="9" fill="#185FA5">FindingDraft {component,</text>
<text x="48" y="356" font-size="9" fill="#185FA5">severity, description}</text>
<rect x="46" y="370" width="168" height="54" rx="5" fill="#FFFFFF" stroke="#185FA5" stroke-width="0.5"/>
<text x="130" y="385" text-anchor="middle" font-size="8" font-weight="700" fill="#0C447C">Example output</text>
<text x="130" y="399" text-anchor="middle" font-size="8" font-style="italic" fill="#185FA5">⚡ Electrical panel → FAIL</text>
<text x="130" y="412" text-anchor="middle" font-size="8" font-style="italic" fill="#185FA5">Possible FPE/Stab-Lok detected</text>
<rect x="46" y="438" width="168" height="50" rx="6" fill="#FFFFFF" stroke="#185FA5" stroke-width="0.5" opacity="0.7"/>
<rect x="106" y="447" width="48" height="32" rx="4" fill="#185FA5" opacity="0.18"/>
<circle cx="130" cy="463" r="9" fill="#185FA5" opacity="0.35"/>
<circle cx="130" cy="463" r="4" fill="#185FA5" opacity="0.6"/>

<!-- ── 2 · ANALYZE (green) ── -->
<rect x="242" y="230" width="188" height="286" rx="8" fill="#EAF3DE" stroke="#3B6D11" stroke-width="0.6"/>
<rect x="242" y="230" width="188" height="42" rx="8" fill="#3B6D11"/>
<rect x="242" y="258" width="188" height="14" fill="#3B6D11"/>
<circle cx="260" cy="250" r="8" fill="#FFFFFF" opacity="0.92"/>
<text x="260" y="253.5" text-anchor="middle" font-size="9" font-weight="700" fill="#3B6D11">2</text>
<text x="340" y="248" text-anchor="middle" font-size="11" font-weight="700" fill="#FFFFFF">Analyze agent</text>
<text x="340" y="262" text-anchor="middle" font-size="8.5" fill="#C0DD97">Gemini Flash  ·  RAG via MCP</text>
<text x="254" y="296" font-size="9.5" font-weight="700" fill="#27500A">Input</text>
<text x="254" y="310" font-size="9" fill="#3B6D11">FindingDraft from Capture</text>
<text x="254" y="330" font-size="9.5" font-weight="700" fill="#27500A">Output</text>
<text x="254" y="344" font-size="9" fill="#3B6D11">RegulatoryCheck {fl_statute,</text>
<text x="254" y="356" font-size="9" fill="#3B6D11">insurance_eligible, severity}</text>
<rect x="252" y="370" width="168" height="54" rx="5" fill="#FFFFFF" stroke="#3B6D11" stroke-width="0.5"/>
<text x="336" y="385" text-anchor="middle" font-size="8" font-weight="700" fill="#27500A">Example output</text>
<text x="336" y="399" text-anchor="middle" font-size="8" font-style="italic" fill="#3B6D11">🚨 Citizens: NON-ELIGIBLE</text>
<text x="336" y="412" text-anchor="middle" font-size="8" font-style="italic" fill="#3B6D11">→ FL Statute 468.8325</text>
<rect x="252" y="438" width="168" height="50" rx="5" fill="#3B6D11"/>
<text x="336" y="455" text-anchor="middle" font-size="8" font-weight="700" fill="#FFFFFF">🔌  Tools via MCPToolset</text>
<text x="336" y="468" text-anchor="middle" font-size="7.5" fill="#C0DD97">FastMCP stdio subprocess · on-demand</text>
<text x="336" y="480" text-anchor="middle" font-size="7.5" fill="#C0DD97">no direct ChromaDB calls</text>

<!-- ── 3 · REPORT (amber) ── -->
<rect x="448" y="230" width="188" height="286" rx="8" fill="#FAEEDA" stroke="#854F0B" stroke-width="0.6"/>
<rect x="448" y="230" width="188" height="42" rx="8" fill="#854F0B"/>
<rect x="448" y="258" width="188" height="14" fill="#854F0B"/>
<circle cx="466" cy="250" r="8" fill="#FFFFFF" opacity="0.92"/>
<text x="466" y="253.5" text-anchor="middle" font-size="9" font-weight="700" fill="#854F0B">3</text>
<text x="540" y="248" text-anchor="middle" font-size="11" font-weight="700" fill="#FFFFFF">Report agent</text>
<text x="540" y="262" text-anchor="middle" font-size="8.5" fill="#FAC775">Gemini 1.5 Pro</text>
<text x="460" y="296" font-size="9.5" font-weight="700" fill="#633806">Input</text>
<text x="460" y="310" font-size="9" fill="#854F0B">Validated findings + regulations</text>
<text x="460" y="330" font-size="9.5" font-weight="700" fill="#633806">Output</text>
<text x="460" y="344" font-size="9" fill="#854F0B">Professional narrative calibrated</text>
<text x="460" y="356" font-size="9" fill="#854F0B">to report type (type-specific)</text>
<rect x="458" y="370" width="168" height="54" rx="5" fill="#FFFFFF" stroke="#854F0B" stroke-width="0.5"/>
<text x="542" y="385" text-anchor="middle" font-size="8" font-weight="700" fill="#633806">Example output</text>
<text x="542" y="399" text-anchor="middle" font-size="8" font-style="italic" fill="#854F0B">"The electrical panel exhibits</text>
<text x="542" y="412" text-anchor="middle" font-size="8" font-style="italic" fill="#854F0B">characteristics consistent..."</text>
<rect x="458" y="438" width="168" height="50" rx="6" fill="#FFFFFF" stroke="#854F0B" stroke-width="0.5" opacity="0.7"/>
<rect x="514" y="446" width="56" height="34" rx="3" fill="#854F0B" opacity="0.12"/>
<line x1="521" y1="455" x2="563" y2="455" stroke="#854F0B" stroke-width="1" opacity="0.45"/>
<line x1="521" y1="463" x2="563" y2="463" stroke="#854F0B" stroke-width="1" opacity="0.45"/>
<line x1="521" y1="471" x2="549" y2="471" stroke="#854F0B" stroke-width="1" opacity="0.45"/>

<!-- ── 4 · AUDIT (purple · NEW) ── -->
<rect x="654" y="230" width="188" height="286" rx="8" fill="#F1E8FA" stroke="#5B2D86" stroke-width="0.6"/>
<rect x="654" y="230" width="188" height="42" rx="8" fill="#5B2D86"/>
<rect x="654" y="258" width="188" height="14" fill="#5B2D86"/>
<circle cx="672" cy="250" r="8" fill="#FFFFFF" opacity="0.92"/>
<text x="672" y="253.5" text-anchor="middle" font-size="9" font-weight="700" fill="#5B2D86">4</text>
<rect x="800" y="237" width="32" height="13" rx="6.5" fill="#FFFFFF"/>
<text x="816" y="246.5" text-anchor="middle" font-size="7.5" font-weight="700" fill="#5B2D86">NEW</text>
<text x="748" y="248" text-anchor="middle" font-size="11" font-weight="700" fill="#FFFFFF">Audit agent</text>
<text x="748" y="262" text-anchor="middle" font-size="8.5" fill="#D9C2F0">Gemini Flash  ·  QA gate</text>
<text x="666" y="296" font-size="9.5" font-weight="700" fill="#3F1D63">Input</text>
<text x="666" y="310" font-size="9" fill="#5B2D86">Narrative + validated findings</text>
<text x="666" y="330" font-size="9.5" font-weight="700" fill="#3F1D63">Verifies</text>
<text x="666" y="344" font-size="9" fill="#5B2D86">✓ FL Statute citations in narrative</text>
<text x="666" y="357" font-size="9" fill="#5B2D86">✓ Severity consistency</text>
<text x="666" y="370" font-size="9" fill="#5B2D86">✓ Disclaimer compliance</text>
<text x="666" y="390" font-size="9.5" font-weight="700" fill="#3F1D63">Output</text>
<text x="666" y="404" font-size="9" fill="#5B2D86">Audit badge in HTML report</text>
<rect x="664" y="420" width="168" height="68" rx="5" fill="#FFFFFF" stroke="#5B2D86" stroke-width="0.5"/>
<text x="748" y="435" text-anchor="middle" font-size="8" font-weight="700" fill="#3F1D63">Report badge</text>
<rect x="676" y="444" width="64" height="15" rx="7.5" fill="#3B6D11"/>
<text x="708" y="454.5" text-anchor="middle" font-size="7.5" font-weight="700" fill="#FFFFFF">✓ PASS</text>
<rect x="748" y="444" width="72" height="15" rx="7.5" fill="#C2700E"/>
<text x="784" y="454.5" text-anchor="middle" font-size="7.5" font-weight="700" fill="#FFFFFF">⚠ REVIEW</text>
<text x="748" y="475" text-anchor="middle" font-size="7.5" font-style="italic" fill="#5B2D86">green = verified  ·  amber = flagged</text>

<!-- sequential arrows between agents -->
<line x1="226" y1="251" x2="240" y2="251" stroke="#475569" stroke-width="1.4" marker-end="url(#arrow)"/>
<line x1="432" y1="251" x2="446" y2="251" stroke="#475569" stroke-width="1.4" marker-end="url(#arrow)"/>
<line x1="638" y1="251" x2="652" y2="251" stroke="#475569" stroke-width="1.4" marker-end="url(#arrow)"/>

<!-- ═════════ MCP LAYER  (Analyze ↔ FastMCP ↔ ChromaDB) ═════════ -->
<line x1="330" y1="516" x2="330" y2="586" stroke="#3B6D11" stroke-width="1.2" stroke-dasharray="4 3" marker-end="url(#arrow)"/>
<line x1="342" y1="586" x2="342" y2="516" stroke="#3B6D11" stroke-width="1.2" stroke-dasharray="4 3" marker-end="url(#arrow)"/>
<rect x="264" y="542" width="144" height="16" rx="4" fill="#EAF3DE" stroke="#3B6D11" stroke-width="0.5"/>
<text x="336" y="553.5" text-anchor="middle" font-size="8" fill="#27500A">MCP tool call ↕ RAG results</text>

<rect x="242" y="588" width="188" height="58" rx="6" fill="#FFFFFF" stroke="#3B6D11" stroke-width="1" stroke-dasharray="5 3"/>
<text x="336" y="605" text-anchor="middle" font-size="9.5" font-weight="700" fill="#27500A">🔌 FastMCP server (stdio)</text>
<text x="336" y="619" text-anchor="middle" font-size="8.5" fill="#3B6D11">Spawned on-demand subprocess</text>
<text x="336" y="632" text-anchor="middle" font-size="8" fill="#639922">MCPToolset · StdioConnectionParams · not persistent</text>

<path d="M 336 646 L 336 662 L 197 662 L 197 702" fill="none" stroke="#3B6D11" stroke-width="1.2" stroke-dasharray="4 3" marker-end="url(#arrow)"/>
<rect x="208" y="648" width="96" height="15" rx="4" fill="#EAF3DE" stroke="#3B6D11" stroke-width="0.5"/>
<text x="256" y="659" text-anchor="middle" font-size="8" fill="#27500A">semantic search</text>

<!-- ═════════ INFRASTRUCTURE  x=36..656  y=678..822 ═════════ -->
<rect x="36" y="678" width="620" height="144" rx="8" fill="#F1F5F9" stroke="#CBD5E1" stroke-width="0.8"/>
<text x="346" y="696" text-anchor="middle" font-size="9.5" font-weight="700" fill="#475569">INFRASTRUCTURE &amp; DATA LAYER — GOOGLE CLOUD</text>

<rect x="52" y="706" width="290" height="50" rx="6" fill="#EAF3DE" stroke="#3B6D11" stroke-width="0.5"/>
<text x="197" y="721" text-anchor="middle" font-size="9.5" font-weight="700" fill="#27500A">ChromaDB (persistent)</text>
<text x="197" y="734" text-anchor="middle" font-size="8.5" fill="#3B6D11">Vector embeddings · semantic search</text>
<text x="197" y="747" text-anchor="middle" font-size="8" fill="#639922">FL Statute 468 · DBPR · Wind Mit · Citizens HO-800</text>

<rect x="358" y="706" width="282" height="50" rx="6" fill="#E6F1FB" stroke="#185FA5" stroke-width="0.5"/>
<text x="499" y="721" text-anchor="middle" font-size="9.5" font-weight="700" fill="#0C447C">Google Cloud Run</text>
<text x="499" y="734" text-anchor="middle" font-size="8.5" fill="#185FA5">us-central1 · 2Gi memory</text>
<text x="499" y="747" text-anchor="middle" font-size="8" fill="#378ADD">Serverless container · FastAPI app</text>

<rect x="52" y="764" width="290" height="50" rx="6" fill="#FFFFFF" stroke="#2E4057" stroke-width="0.6"/>
<text x="197" y="779" text-anchor="middle" font-size="9.5" font-weight="700" fill="#1C2F4A">Vertex AI — ADC auth (no API keys)</text>
<text x="197" y="792" text-anchor="middle" font-size="8" fill="#2E4057">inspectiq-runtime@mcag-hackathon · roles/aiplatform.user</text>
<text x="197" y="805" text-anchor="middle" font-size="8" fill="#64748B">GOOGLE_GENAI_USE_VERTEXAI=1</text>

<rect x="358" y="764" width="282" height="50" rx="6" fill="#FAEEDA" stroke="#854F0B" stroke-width="0.5"/>
<text x="499" y="779" text-anchor="middle" font-size="9.5" font-weight="700" fill="#633806">Google ADK + FastAPI</text>
<text x="499" y="792" text-anchor="middle" font-size="8.5" fill="#854F0B">SequentialAgent orchestration · session state</text>
<text x="499" y="805" text-anchor="middle" font-size="8" fill="#BA7517">REST endpoints · async processing</text>

<!-- Audit → /report/{id}  (right-side lane) -->
<line x1="748" y1="516" x2="748" y2="848" stroke="#5B2D86" stroke-width="1.4" marker-end="url(#arrow)"/>
<rect x="688" y="672" width="120" height="16" rx="4" fill="#F1E8FA" stroke="#5B2D86" stroke-width="0.5"/>
<text x="748" y="683.5" text-anchor="middle" font-size="8" fill="#3F1D63">audited report ✓ / ⚠</text>

<!-- ═════════ OUTPUT LAYER  y=838..916 ═════════ -->
<text x="440" y="842" text-anchor="middle" font-size="9.5" font-weight="700" fill="#475569">OUTPUT LAYER — FASTAPI ENDPOINTS</text>

<rect x="36" y="852" width="152" height="64" rx="6" fill="#E6F1FB" stroke="#185FA5" stroke-width="0.8"/>
<text x="112" y="871" text-anchor="middle" font-size="9" font-weight="700" fill="#0C447C">GET /inspect-ui</text>
<text x="112" y="886" text-anchor="middle" font-size="8" fill="#185FA5">Web UI for</text>
<text x="112" y="898" text-anchor="middle" font-size="8" fill="#185FA5">field inspectors</text>

<rect x="200" y="852" width="152" height="64" rx="6" fill="#EAF3DE" stroke="#3B6D11" stroke-width="0.8"/>
<text x="276" y="871" text-anchor="middle" font-size="9" font-weight="700" fill="#27500A">POST /pipeline</text>
<text x="276" y="886" text-anchor="middle" font-size="8" fill="#3B6D11">Fast path</text>
<text x="276" y="898" text-anchor="middle" font-size="8" fill="#3B6D11">(direct, no ADK)</text>

<rect x="364" y="852" width="152" height="64" rx="6" fill="#FFFFFF" stroke="#2E4057" stroke-width="0.8"/>
<text x="440" y="871" text-anchor="middle" font-size="9" font-weight="700" fill="#1C2F4A">POST /adk-pipeline</text>
<text x="440" y="886" text-anchor="middle" font-size="8" fill="#2E4057">ADK SequentialAgent</text>
<text x="440" y="898" text-anchor="middle" font-size="8" fill="#2E4057">+ MCP toolchain</text>

<rect x="528" y="852" width="152" height="64" rx="6" fill="#F1F5F9" stroke="#64748B" stroke-width="0.8"/>
<text x="604" y="871" text-anchor="middle" font-size="9" font-weight="700" fill="#334155">GET /demo-report</text>
<text x="604" y="886" text-anchor="middle" font-size="8" fill="#475569">Lifespan cache</text>
<text x="604" y="898" text-anchor="middle" font-size="8" fill="#475569">regenerated at startup</text>

<rect x="692" y="852" width="152" height="64" rx="6" fill="#FAEEDA" stroke="#854F0B" stroke-width="0.8"/>
<text x="768" y="871" text-anchor="middle" font-size="9" font-weight="700" fill="#633806">GET /report/{id}</text>
<text x="768" y="886" text-anchor="middle" font-size="8" fill="#854F0B">HTML report</text>
<text x="768" y="898" text-anchor="middle" font-size="8" fill="#854F0B">memory + disk persisted</text>

<!-- arrow endpoints → HTML report -->
<line x1="440" y1="916" x2="440" y2="936" stroke="#2E4057" stroke-width="1.4" marker-end="url(#arrow)"/>

<!-- ═════════ HTML REPORT  y=936..1022 ═════════ -->
<rect x="240" y="936" width="400" height="86" rx="8" fill="#FFFFFF" stroke="#2E4057" stroke-width="1"/>
<text x="440" y="956" text-anchor="middle" font-size="11" font-weight="700" fill="#1C2F4A">📄  HTML inspection report</text>
<text x="440" y="972" text-anchor="middle" font-size="9" fill="#475569">Inspection photo  ·  severity badge  ·  audit badge</text>
<rect x="328" y="980" width="76" height="16" rx="8" fill="#3B6D11"/>
<text x="366" y="991.5" text-anchor="middle" font-size="8" font-weight="700" fill="#FFFFFF">✓ AUDIT PASS</text>
<rect x="416" y="980" width="92" height="16" rx="8" fill="#C2700E"/>
<text x="462" y="991.5" text-anchor="middle" font-size="8" font-weight="700" fill="#FFFFFF">⚠ NEEDS REVIEW</text>
<text x="440" y="1012" text-anchor="middle" font-size="8" fill="#64748B">4-Point  ·  Wind Mitigation  ·  Full inspection  —  FL-compliant · insurance-ready</text>

<!-- ═════════ LEGEND  y=1040..1078 ═════════ -->
<rect x="36" y="1040" width="808" height="38" rx="6" fill="#F1F5F9" stroke="#CBD5E1" stroke-width="0.5"/>
<text x="52" y="1054" font-size="8" font-weight="700" fill="#475569">Built with:</text>
<circle cx="112" cy="1051" r="4" fill="#2E4057"/>
<text x="120" y="1054.5" font-size="8" fill="#334155">Google ADK</text>
<circle cx="186" cy="1051" r="4" fill="#185FA5"/>
<text x="194" y="1054.5" font-size="8" fill="#334155">Vertex AI (Gemini)</text>
<circle cx="288" cy="1051" r="4" fill="#3B6D11"/>
<text x="296" y="1054.5" font-size="8" fill="#334155">ChromaDB</text>
<circle cx="362" cy="1051" r="4" fill="#FFFFFF" stroke="#3B6D11" stroke-width="1.2" stroke-dasharray="2 1.5"/>
<text x="370" y="1054.5" font-size="8" fill="#334155">MCP (FastMCP)</text>
<circle cx="456" cy="1051" r="4" fill="#854F0B"/>
<text x="464" y="1054.5" font-size="8" fill="#334155">FastAPI</text>
<circle cx="516" cy="1051" r="4" fill="#6B90AE"/>
<text x="524" y="1054.5" font-size="8" fill="#334155">Google Cloud Run</text>
<text x="52" y="1070" font-size="7.5" fill="#64748B">Blue = Capture  ·  Green = Analyze + MCP/RAG  ·  Amber = Report  ·  Purple = Audit (new)  ·  Navy = Orchestration  ·  Dashed = MCP tool call</text>

</svg>
